<svg width="860" height="460" xmlns="http://www.w3.org/2000/svg" xmlns:xlink="http://www.w3.org/1999/xlink" version="1.1" baseProfile="full" viewBox="0 0 860 460">
<rect width="860" height="460" x="0" y="0" fill="#0d1117"></rect>
<path d="M130.5 84L130.5 416" fill="none" pointer-events="visible" stroke="#21262d" stroke-dasharray="4,2" class="zr4-cls-26"></path>
<path d="M260.5 84L260.5 416" fill="none" pointer-events="visible" stroke="#21262d" stroke-dasharray="4,2" class="zr4-cls-26"></path>
<path d="M390.5 84L390.5 416" fill="none" pointer-events="visible" stroke="#21262d" stroke-dasharray="4,2" class="zr4-cls-26"></path>
<path d="M520.5 84L520.5 416" fill="none" pointer-events="visible" stroke="#21262d" stroke-dasharray="4,2" class="zr4-cls-26"></path>
<path d="M650.5 84L650.5 416" fill="none" pointer-events="visible" stroke="#21262d" stroke-dasharray="4,2" class="zr4-cls-26"></path>
<path d="M781.5 84L781.5 416" fill="none" pointer-events="visible" stroke="#21262d" stroke-dasharray="4,2" class="zr4-cls-26"></path>
<path d="M130.5 416L130.5 84" fill="none" pointer-events="visible" stroke="#30363d" stroke-linecap="round" class="zr4-cls-26"></path>
<text dominant-baseline="central" text-anchor="start" style="font-size:12px;font-family:-apple-system, BlinkMacSystemFont, Helvetica, Arial, sans-serif;" xml:space="preserve" transform="translate(794.84 416)" fill="#7d8590">accuracy %</text>
<text dominant-baseline="central" text-anchor="end" style="font-size:12px;font-family:-apple-system, BlinkMacSystemFont, Helvetica, Arial, sans-serif;" transform="translate(122 388.3333)" fill="#8b949e">TruthfulQA-MC1</text>
<text dominant-baseline="central" text-anchor="end" style="font-size:12px;font-family:-apple-system, BlinkMacSystemFont, Helvetica, Arial, sans-serif;" transform="translate(122 333)" fill="#8b949e">MMLU</text>
<text dominant-baseline="central" text-anchor="end" style="font-size:12px;font-family:-apple-system, BlinkMacSystemFont, Helvetica, Arial, sans-serif;" transform="translate(122 277.6667)" fill="#8b949e">ARC-Challenge</text>
<text dominant-baseline="central" text-anchor="end" style="font-size:12px;font-family:-apple-system, BlinkMacSystemFont, Helvetica, Arial, sans-serif;" transform="translate(122 222.3333)" fill="#8b949e">Winogrande</text>
<text dominant-baseline="central" text-anchor="end" style="font-size:12px;font-family:-apple-system, BlinkMacSystemFont, Helvetica, Arial, sans-serif;" transform="translate(122 167)" fill="#8b949e">HellaSwag</text>
<text dominant-baseline="central" text-anchor="end" style="font-size:12px;font-family:-apple-system, BlinkMacSystemFont, Helvetica, Arial, sans-serif;" transform="translate(122 111.6667)" fill="#8b949e">GSM8K</text>
<text dominant-baseline="central" text-anchor="middle" style="font-size:12px;font-family:-apple-system, BlinkMacSystemFont, Helvetica, Arial, sans-serif;" y="6" transform="translate(130 424)" fill="#8b949e">0</text>
<text dominant-baseline="central" text-anchor="middle" style="font-size:12px;font-family:-apple-system, BlinkMacSystemFont, Helvetica, Arial, sans-serif;" y="6" transform="translate(260.168 424)" fill="#8b949e">20</text>
<text dominant-baseline="central" text-anchor="middle" style="font-size:12px;font-family:-apple-system, BlinkMacSystemFont, Helvetica, Arial, sans-serif;" y="6" transform="translate(390.336 424)" fill="#8b949e">40</text>
<text dominant-baseline="central" text-anchor="middle" style="font-size:12px;font-family:-apple-system, BlinkMacSystemFont, Helvetica, Arial, sans-serif;" y="6" transform="translate(520.504 424)" fill="#8b949e">60</text>
<text dominant-baseline="central" text-anchor="middle" style="font-size:12px;font-family:-apple-system, BlinkMacSystemFont, Helvetica, Arial, sans-serif;" y="6" transform="translate(650.672 424)" fill="#8b949e">80</text>
<text dominant-baseline="central" text-anchor="middle" style="font-size:12px;font-family:-apple-system, BlinkMacSystemFont, Helvetica, Arial, sans-serif;" y="6" transform="translate(780.84 424)" fill="#8b949e">100</text>
<path d="M130 380.3L371.7 380.3A3 3 0 0 1 374.7 383.3L374.7 393.3A3 3 0 0 1 371.7 396.3L130 396.3L130 380.3Z" fill="#58a6ff" ecmeta_series_index="0" ecmeta_data_index="0" ecmeta_ssr_type="chart" class="zr4-cls-27"></path>
<path d="M130 325L397.1 325A3 3 0 0 1 400.1 328L400.1 338A3 3 0 0 1 397.1 341L130 341L130 325Z" fill="#3fb950" ecmeta_series_index="0" ecmeta_data_index="1" ecmeta_ssr_type="chart" class="zr4-cls-28"></path>
<path d="M130 269.7L486.3 269.7A3 3 0 0 1 489.3 272.7L489.3 282.7A3 3 0 0 1 486.3 285.7L130 285.7L130 269.7Z" fill="#bc8cff" ecmeta_series_index="0" ecmeta_data_index="2" ecmeta_ssr_type="chart" class="zr4-cls-29"></path>
<path d="M130 214.3L619 214.3A3 3 0 0 1 622 217.3L622 227.3A3 3 0 0 1 619 230.3L130 230.3L130 214.3Z" fill="#f0883e" ecmeta_series_index="0" ecmeta_data_index="3" ecmeta_ssr_type="chart" class="zr4-cls-30"></path>
<path d="M130 159L660 159A3 3 0 0 1 663 162L663 172A3 3 0 0 1 660 175L130 175L130 159Z" fill="#f85149" ecmeta_series_index="0" ecmeta_data_index="4" ecmeta_ssr_type="chart" class="zr4-cls-31"></path>
<path d="M130 103.7L758.3 103.7A3 3 0 0 1 761.3 106.7L761.3 116.7A3 3 0 0 1 758.3 119.7L130 119.7L130 103.7Z" fill="#d29922" ecmeta_series_index="0" ecmeta_data_index="5" ecmeta_ssr_type="chart" class="zr4-cls-32"></path>
<text dominant-baseline="central" text-anchor="start" style="font-size:12px;font-family:-apple-system;" transform="translate(379.7158 388.3333)" fill="#e6edf3">37.6%</text>
<text dominant-baseline="central" text-anchor="start" style="font-size:12px;font-family:-apple-system;" transform="translate(405.0986 333)" fill="#e6edf3">41.5%</text>
<text dominant-baseline="central" text-anchor="start" style="font-size:12px;font-family:-apple-system;" transform="translate(494.2637 277.6667)" fill="#e6edf3">55.2%</text>
<text dominant-baseline="central" text-anchor="start" style="font-size:12px;font-family:-apple-system;" transform="translate(627.035 222.3333)" fill="#e6edf3">75.6%</text>
<text dominant-baseline="central" text-anchor="start" style="font-size:12px;font-family:-apple-system;" transform="translate(668.038 167)" fill="#e6edf3">81.9%</text>
<text dominant-baseline="central" text-anchor="start" style="font-size:12px;font-family:-apple-system;" transform="translate(766.3148 111.6667)" fill="#e6edf3">97%</text>
<path d="M-5 -5l10 0l0 10l-10 0Z" transform="translate(829 27)" fill="rgb(0,0,0)" fill-opacity="0" stroke="#b7b9be" stroke-width="0" class="zr4-cls-26"></path>
<path d="M-5 -5l374.3 0l0 54l-374.3 0Z" transform="translate(31 23)" fill="rgb(0,0,0)" fill-opacity="0" stroke="#3c3c41" stroke-width="0" class="zr4-cls-26"></path>
<text dominant-baseline="central" text-anchor="start" style="font-size:18px;font-family:-apple-system, BlinkMacSystemFont, Helvetica, Arial, sans-serif;font-weight:600;" xml:space="preserve" y="9" transform="translate(31 23)" fill="#e6edf3">AgentWorld · accuracy (Q5_K_M)</text>
<path d="M0 28l364.3 0l0 16l-364.3 0Z" transform="translate(31 23)" fill="none" pointer-events="visible" class="zr4-cls-26"></path>
<text dominant-baseline="central" text-anchor="start" style="font-size:12px;font-family:-apple-system, BlinkMacSystemFont, Helvetica, Arial, sans-serif;" xml:space="preserve" y="36" transform="translate(31 23)" fill="#7d8590">lm-eval harness · Wikitext-2 PPL 5.96 (lower better) · % accuracy</text>
<style ><![CDATA[
.zr4-cls-26:hover {
pointer-events:none;
}
.zr4-cls-27:hover {
cursor:pointer;
fill:rgba(96,182,255,1);
}
.zr4-cls-28:hover {
cursor:pointer;
fill:rgba(69,203,88,1);
}
.zr4-cls-29:hover {
cursor:pointer;
fill:rgba(206,154,255,1);
}
.zr4-cls-30:hover {
cursor:pointer;
fill:rgba(255,149,68,1);
}
.zr4-cls-31:hover {
cursor:pointer;
fill:rgba(255,89,80,1);
}
.zr4-cls-32:hover {
cursor:pointer;
fill:rgba(231,168,37,1);
}

]]>

</style>
</svg>