<svg width="900" height="480" xmlns="http://www.w3.org/2000/svg" xmlns:xlink="http://www.w3.org/1999/xlink" version="1.1" baseProfile="full" viewBox="0 0 900 480">
<rect width="900" height="480" x="0" y="0" fill="#0d1117"></rect>
<path d="M96.2 402.5L866 402.5" fill="none" pointer-events="visible" stroke="#21262d" stroke-dasharray="4,2" class="zr0-cls-0"></path>
<path d="M96.2 363.5L866 363.5" fill="none" pointer-events="visible" stroke="#21262d" stroke-dasharray="4,2" class="zr0-cls-0"></path>
<path d="M96.2 325.5L866 325.5" fill="none" pointer-events="visible" stroke="#21262d" stroke-dasharray="4,2" class="zr0-cls-0"></path>
<path d="M96.2 286.5L866 286.5" fill="none" pointer-events="visible" stroke="#21262d" stroke-dasharray="4,2" class="zr0-cls-0"></path>
<path d="M96.2 247.5L866 247.5" fill="none" pointer-events="visible" stroke="#21262d" stroke-dasharray="4,2" class="zr0-cls-0"></path>
<path d="M96.2 209.5L866 209.5" fill="none" pointer-events="visible" stroke="#21262d" stroke-dasharray="4,2" class="zr0-cls-0"></path>
<path d="M96.2 170.5L866 170.5" fill="none" pointer-events="visible" stroke="#21262d" stroke-dasharray="4,2" class="zr0-cls-0"></path>
<path d="M96.2 132.5L866 132.5" fill="none" pointer-events="visible" stroke="#21262d" stroke-dasharray="4,2" class="zr0-cls-0"></path>
<path d="M96.5 132L96.5 402" fill="none" pointer-events="visible" stroke="#21262d" stroke-dasharray="4,2" class="zr0-cls-0"></path>
<path d="M288.5 132L288.5 402" fill="none" pointer-events="visible" stroke="#21262d" stroke-dasharray="4,2" class="zr0-cls-0"></path>
<path d="M481.5 132L481.5 402" fill="none" pointer-events="visible" stroke="#21262d" stroke-dasharray="4,2" class="zr0-cls-0"></path>
<path d="M673.5 132L673.5 402" fill="none" pointer-events="visible" stroke="#21262d" stroke-dasharray="4,2" class="zr0-cls-0"></path>
<path d="M866.5 132L866.5 402" fill="none" pointer-events="visible" stroke="#21262d" stroke-dasharray="4,2" class="zr0-cls-0"></path>
<text dominant-baseline="central" text-anchor="middle" style="font-size:12px;font-family:-apple-system, BlinkMacSystemFont, Helvetica, Arial, sans-serif;" xml:space="preserve" y="-6" transform="translate(96.24 118)" fill="#7d8590">prefill t/s</text>
<text dominant-baseline="central" text-anchor="middle" style="font-size:12px;font-family:-apple-system, BlinkMacSystemFont, Helvetica, Arial, sans-serif;" xml:space="preserve" y="6" transform="translate(481.12 436)" fill="#7d8590">prompt tokens</text>
<path d="M96.2 402.5L866 402.5" fill="none" pointer-events="visible" stroke="#30363d" stroke-linecap="round" class="zr0-cls-0"></path>
<text dominant-baseline="central" text-anchor="end" style="font-size:12px;font-family:-apple-system, BlinkMacSystemFont, Helvetica, Arial, sans-serif;" transform="translate(88.24 402)" fill="#8b949e">0</text>
<text dominant-baseline="central" text-anchor="end" style="font-size:12px;font-family:-apple-system, BlinkMacSystemFont, Helvetica, Arial, sans-serif;" transform="translate(88.24 363.4286)" fill="#8b949e">300</text>
<text dominant-baseline="central" text-anchor="end" style="font-size:12px;font-family:-apple-system, BlinkMacSystemFont, Helvetica, Arial, sans-serif;" transform="translate(88.24 324.8571)" fill="#8b949e">600</text>
<text dominant-baseline="central" text-anchor="end" style="font-size:12px;font-family:-apple-system, BlinkMacSystemFont, Helvetica, Arial, sans-serif;" transform="translate(88.24 286.2857)" fill="#8b949e">900</text>
<text dominant-baseline="central" text-anchor="end" style="font-size:12px;font-family:-apple-system, BlinkMacSystemFont, Helvetica, Arial, sans-serif;" transform="translate(88.24 247.7143)" fill="#8b949e">1,200</text>
<text dominant-baseline="central" text-anchor="end" style="font-size:12px;font-family:-apple-system, BlinkMacSystemFont, Helvetica, Arial, sans-serif;" transform="translate(88.24 209.1429)" fill="#8b949e">1,500</text>
<text dominant-baseline="central" text-anchor="end" style="font-size:12px;font-family:-apple-system, BlinkMacSystemFont, Helvetica, Arial, sans-serif;" transform="translate(88.24 170.5714)" fill="#8b949e">1,800</text>
<text dominant-baseline="central" text-anchor="end" style="font-size:12px;font-family:-apple-system, BlinkMacSystemFont, Helvetica, Arial, sans-serif;" transform="translate(88.24 132)" fill="#8b949e">2,100</text>
<text dominant-baseline="central" text-anchor="middle" style="font-size:12px;font-family:-apple-system, BlinkMacSystemFont, Helvetica, Arial, sans-serif;" y="6" transform="translate(96.24 410)" fill="#8b949e">100</text>
<text dominant-baseline="central" text-anchor="middle" style="font-size:12px;font-family:-apple-system, BlinkMacSystemFont, Helvetica, Arial, sans-serif;" y="6" transform="translate(288.68 410)" fill="#8b949e">1k</text>
<text dominant-baseline="central" text-anchor="middle" style="font-size:12px;font-family:-apple-system, BlinkMacSystemFont, Helvetica, Arial, sans-serif;" y="6" transform="translate(481.12 410)" fill="#8b949e">10k</text>
<text dominant-baseline="central" text-anchor="middle" style="font-size:12px;font-family:-apple-system, BlinkMacSystemFont, Helvetica, Arial, sans-serif;" y="6" transform="translate(673.56 410)" fill="#8b949e">100k</text>
<text dominant-baseline="central" text-anchor="middle" style="font-size:12px;font-family:-apple-system, BlinkMacSystemFont, Helvetica, Arial, sans-serif;" y="6" transform="translate(866 410)" fill="#8b949e">1000k</text>
<g clip-path="url(#zr0-c0)">
<path d="M270.6 260.7L388.8 261.1L450.9 266L512.5 276.5L572.1 294.6L632.7 320.5L695.1 348.8" fill="none" pointer-events="visible" stroke="#8b949e" stroke-width="2.2" stroke-dasharray="8.8,4.4" stroke-linejoin="bevel" class="zr0-cls-2"></path>
</g>
<path d="M1 0A1 1 0 1 1 1 -0.1A1 1 0 0 1 1 0" transform="matrix(3,0,0,3,270.5514,260.7)" fill="#8b949e" stroke="#0d1117" stroke-width="0.5" ecmeta_series_index="0" ecmeta_data_index="0" ecmeta_ssr_type="chart" class="zr0-cls-3"></path>
<path d="M1 0A1 1 0 1 1 1 -0.1A1 1 0 0 1 1 0" transform="matrix(3,0,0,3,388.7914,261.0857)" fill="#8b949e" stroke="#0d1117" stroke-width="0.5" ecmeta_series_index="0" ecmeta_data_index="1" ecmeta_ssr_type="chart" class="zr0-cls-3"></path>
<path d="M1 0A1 1 0 1 1 1 -0.1A1 1 0 0 1 1 0" transform="matrix(3,0,0,3,450.8677,265.9714)" fill="#8b949e" stroke="#0d1117" stroke-width="0.5" ecmeta_series_index="0" ecmeta_data_index="2" ecmeta_ssr_type="chart" class="zr0-cls-3"></path>
<path d="M1 0A1 1 0 1 1 1 -0.1A1 1 0 0 1 1 0" transform="matrix(3,0,0,3,512.536,276.5143)" fill="#8b949e" stroke="#0d1117" stroke-width="0.5" ecmeta_series_index="0" ecmeta_data_index="3" ecmeta_ssr_type="chart" class="zr0-cls-3"></path>
<path d="M1 0A1 1 0 1 1 1 -0.1A1 1 0 0 1 1 0" transform="matrix(3,0,0,3,572.1339,294.6429)" fill="#8b949e" stroke="#0d1117" stroke-width="0.5" ecmeta_series_index="0" ecmeta_data_index="4" ecmeta_ssr_type="chart" class="zr0-cls-3"></path>
<path d="M1 0A1 1 0 1 1 1 -0.1A1 1 0 0 1 1 0" transform="matrix(3,0,0,3,632.7148,320.4857)" fill="#8b949e" stroke="#0d1117" stroke-width="0.5" ecmeta_series_index="0" ecmeta_data_index="5" ecmeta_ssr_type="chart" class="zr0-cls-3"></path>
<path d="M1 0A1 1 0 1 1 1 -0.1A1 1 0 0 1 1 0" transform="matrix(3,0,0,3,695.0522,348.7714)" fill="#8b949e" stroke="#0d1117" stroke-width="0.5" ecmeta_series_index="0" ecmeta_data_index="6" ecmeta_ssr_type="chart" class="zr0-cls-3"></path>
<g clip-path="url(#zr0-c1)">
<path d="M270.6 222.4L388.8 164.8L450.9 178.8L512.5 204.6L572.1 247.1L632.7 295.7L695.1 339.3L695.1 402L632.7 402L572.1 402L512.5 402L450.9 402L388.8 402L270.6 402Z" fill="#58a6ff" fill-opacity="0.1" class="zr0-cls-4"></path>
<path d="M270.6 222.4L388.8 164.8L450.9 178.8L512.5 204.6L572.1 247.1L632.7 295.7L695.1 339.3" fill="none" pointer-events="visible" stroke="#58a6ff" stroke-width="2.6" stroke-linejoin="bevel" class="zr0-cls-2"></path>
</g>
<path d="M1 0A1 1 0 1 1 1 -0.1A1 1 0 0 1 1 0" transform="matrix(4,0,0,4,270.5514,222.3857)" fill="#58a6ff" stroke="#0d1117" stroke-width="0.375" ecmeta_series_index="1" ecmeta_data_index="0" ecmeta_ssr_type="chart" class="zr0-cls-4"></path>
<path d="M1 0A1 1 0 1 1 1 -0.1A1 1 0 0 1 1 0" transform="matrix(4,0,0,4,388.7914,164.7857)" fill="#58a6ff" stroke="#0d1117" stroke-width="0.375" ecmeta_series_index="1" ecmeta_data_index="1" ecmeta_ssr_type="chart" class="zr0-cls-4"></path>
<path d="M1 0A1 1 0 1 1 1 -0.1A1 1 0 0 1 1 0" transform="matrix(4,0,0,4,450.8677,178.8)" fill="#58a6ff" stroke="#0d1117" stroke-width="0.375" ecmeta_series_index="1" ecmeta_data_index="2" ecmeta_ssr_type="chart" class="zr0-cls-4"></path>
<path d="M1 0A1 1 0 1 1 1 -0.1A1 1 0 0 1 1 0" transform="matrix(4,0,0,4,512.536,204.6429)" fill="#58a6ff" stroke="#0d1117" stroke-width="0.375" ecmeta_series_index="1" ecmeta_data_index="3" ecmeta_ssr_type="chart" class="zr0-cls-4"></path>
<path d="M1 0A1 1 0 1 1 1 -0.1A1 1 0 0 1 1 0" transform="matrix(4,0,0,4,572.1339,247.0714)" fill="#58a6ff" stroke="#0d1117" stroke-width="0.375" ecmeta_series_index="1" ecmeta_data_index="4" ecmeta_ssr_type="chart" class="zr0-cls-4"></path>
<path d="M1 0A1 1 0 1 1 1 -0.1A1 1 0 0 1 1 0" transform="matrix(4,0,0,4,632.7148,295.6714)" fill="#58a6ff" stroke="#0d1117" stroke-width="0.375" ecmeta_series_index="1" ecmeta_data_index="5" ecmeta_ssr_type="chart" class="zr0-cls-4"></path>
<path d="M1 0A1 1 0 1 1 1 -0.1A1 1 0 0 1 1 0" transform="matrix(4,0,0,4,695.0522,339.2571)" fill="#58a6ff" stroke="#0d1117" stroke-width="0.375" ecmeta_series_index="1" ecmeta_data_index="6" ecmeta_ssr_type="chart" class="zr0-cls-4"></path>
<path d="M-5 -5l436.5 0l0 22l-436.5 0Z" transform="translate(31 71)" fill="rgb(0,0,0)" fill-opacity="0" stroke="#b7b9be" stroke-width="0" class="zr0-cls-0"></path>
<path d="M2 0L12 0A2 2 0 0 1 14 2L14 6A2 2 0 0 1 12 8L2 8A2 2 0 0 1 0 6L0 2A2 2 0 0 1 2 0Z" transform="translate(32 73)" fill="#8b949e" stroke="#0d1117" stroke-width="2" stroke-linecap="butt" stroke-miterlimit="10" ecmeta_series_index="0" ecmeta_data_index="0" ecmeta_ssr_type="legend" ecmeta_silent="true" class="zr0-cls-0"></path>
<text dominant-baseline="central" text-anchor="start" style="font-size:12px;font-family:-apple-system, BlinkMacSystemFont, Helvetica, Arial, sans-serif;" xml:space="preserve" x="19" y="4" transform="translate(32 73)" fill="#8b949e">upstream defaults</text>
<path d="M-1 -2l115.8 0l0 12l-115.8 0Z" transform="translate(32 73)" fill="none" pointer-events="visible" ecmeta_series_index="0" ecmeta_data_index="0" ecmeta_ssr_type="legend" class="zr0-cls-5"></path>
<path d="M2 0L12 0A2 2 0 0 1 14 2L14 6A2 2 0 0 1 12 8L2 8A2 2 0 0 1 0 6L0 2A2 2 0 0 1 2 0Z" transform="translate(165.76 73)" fill="#58a6ff" stroke="#0d1117" stroke-width="2" stroke-linecap="butt" stroke-miterlimit="10" ecmeta_series_index="1" ecmeta_data_index="1" ecmeta_ssr_type="legend" ecmeta_silent="true" class="zr0-cls-0"></path>
<text dominant-baseline="central" text-anchor="start" style="font-size:12px;font-family:-apple-system, BlinkMacSystemFont, Helvetica, Arial, sans-serif;" xml:space="preserve" x="19" y="4" transform="translate(165.76 73)" fill="#8b949e">upstream + Turbo flags</text>
<path d="M-1 -2l144.1 0l0 12l-144.1 0Z" transform="translate(165.76 73)" fill="none" pointer-events="visible" ecmeta_series_index="1" ecmeta_data_index="1" ecmeta_ssr_type="legend" class="zr0-cls-5"></path>
<path d="M2 0L12 0A2 2 0 0 1 14 2L14 6A2 2 0 0 1 12 8L2 8A2 2 0 0 1 0 6L0 2A2 2 0 0 1 2 0Z" transform="translate(327.84 73)" fill="#f0883e" stroke="#0d1117" stroke-width="2" stroke-linecap="butt" stroke-miterlimit="10" ecmeta_series_index="2" ecmeta_data_index="2" ecmeta_ssr_type="legend" ecmeta_silent="true" class="zr0-cls-0"></path>
<text dominant-baseline="central" text-anchor="start" style="font-size:12px;font-family:-apple-system, BlinkMacSystemFont, Helvetica, Arial, sans-serif;" xml:space="preserve" x="19" y="4" transform="translate(327.84 73)" fill="#8b949e">Turbo build (+fusion)</text>
<path d="M-1 -2l130.6 0l0 12l-130.6 0Z" transform="translate(327.84 73)" fill="none" pointer-events="visible" ecmeta_series_index="2" ecmeta_data_index="2" ecmeta_ssr_type="legend" class="zr0-cls-5"></path>
<g clip-path="url(#zr0-c2)">
<path d="M270.6 221.4L388.8 164.1L450.9 178.5L512.5 204.4L572.1 246.7L632.7 295.7L695.1 339.3" fill="none" pointer-events="visible" stroke="#f0883e" stroke-linejoin="bevel" class="zr0-cls-2"></path>
</g>
<path d="M0 -1L1 0L0 1L-1 0Z" transform="matrix(6,0,0,6,270.5514,221.3571)" fill="#f0883e" stroke="#0d1117" stroke-width="0.25" ecmeta_series_index="2" ecmeta_data_index="0" ecmeta_ssr_type="chart" class="zr0-cls-6"></path>
<path d="M0 -1L1 0L0 1L-1 0Z" transform="matrix(6,0,0,6,388.7914,164.1429)" fill="#f0883e" stroke="#0d1117" stroke-width="0.25" ecmeta_series_index="2" ecmeta_data_index="1" ecmeta_ssr_type="chart" class="zr0-cls-6"></path>
<path d="M0 -1L1 0L0 1L-1 0Z" transform="matrix(6,0,0,6,450.8677,178.5429)" fill="#f0883e" stroke="#0d1117" stroke-width="0.25" ecmeta_series_index="2" ecmeta_data_index="2" ecmeta_ssr_type="chart" class="zr0-cls-6"></path>
<path d="M0 -1L1 0L0 1L-1 0Z" transform="matrix(6,0,0,6,512.536,204.3857)" fill="#f0883e" stroke="#0d1117" stroke-width="0.25" ecmeta_series_index="2" ecmeta_data_index="3" ecmeta_ssr_type="chart" class="zr0-cls-6"></path>
<path d="M0 -1L1 0L0 1L-1 0Z" transform="matrix(6,0,0,6,572.1339,246.6857)" fill="#f0883e" stroke="#0d1117" stroke-width="0.25" ecmeta_series_index="2" ecmeta_data_index="4" ecmeta_ssr_type="chart" class="zr0-cls-6"></path>
<path d="M0 -1L1 0L0 1L-1 0Z" transform="matrix(6,0,0,6,632.7148,295.6714)" fill="#f0883e" stroke="#0d1117" stroke-width="0.25" ecmeta_series_index="2" ecmeta_data_index="5" ecmeta_ssr_type="chart" class="zr0-cls-6"></path>
<path d="M0 -1L1 0L0 1L-1 0Z" transform="matrix(6,0,0,6,695.0522,339.2571)" fill="#f0883e" stroke="#0d1117" stroke-width="0.25" ecmeta_series_index="2" ecmeta_data_index="6" ecmeta_ssr_type="chart" class="zr0-cls-6"></path>
<path d="M-5 -5l652.1 0l0 54l-652.1 0Z" transform="translate(31 23)" fill="rgb(0,0,0)" fill-opacity="0" stroke="#3c3c41" stroke-width="0" class="zr0-cls-0"></path>
<text dominant-baseline="central" text-anchor="start" style="font-size:18px;font-family:-apple-system, BlinkMacSystemFont, Helvetica, Arial, sans-serif;font-weight:600;" xml:space="preserve" y="9" transform="translate(31 23)" fill="#e6edf3">AgentWorld · prefill — 3-way decomposition</text>
<path d="M0 28l642.1 0l0 16l-642.1 0Z" transform="translate(31 23)" fill="none" pointer-events="visible" class="zr0-cls-0"></path>
<text dominant-baseline="central" text-anchor="start" style="font-size:12px;font-family:-apple-system, BlinkMacSystemFont, Helvetica, Arial, sans-serif;" xml:space="preserve" y="36" transform="translate(31 23)" fill="#7d8590">single stream · prefill t/s vs prompt tokens · config win 1.2–1.7× · fusion (code win) adds 1.00–1.01× — ~nothing</text>
<defs >
<clipPath id="zr0-c0">
<path d="M95 130.9l773 0l0 272.2l-773 0Z" fill="#000" class="zr0-cls-1"></path>
</clipPath>
<clipPath id="zr0-c1">
<path d="M94 130.7l774 0l0 272.6l-774 0Z" fill="#000" class="zr0-cls-1"></path>
</clipPath>
<clipPath id="zr0-c2">
<path d="M95 131.5l772 0l0 271l-772 0Z" fill="#000" class="zr0-cls-1"></path>
</clipPath>
</defs>
<style ><![CDATA[
.zr0-cls-0:hover {
pointer-events:none;
}
.zr0-cls-1:hover {
cursor:pointer;
fill:rgba(0,0,0,1);
}
.zr0-cls-2:hover {
cursor:pointer;
}
.zr0-cls-3:hover {
cursor:pointer;
fill:rgba(152,162,173,1);
}
.zr0-cls-4:hover {
cursor:pointer;
fill:rgba(96,182,255,1);
}
.zr0-cls-5:hover {
cursor:pointer;
fill:rgba(0,0,0,0);
}
.zr0-cls-6:hover {
cursor:pointer;
fill:rgba(255,149,68,1);
}

]]>

</style>
</svg>